<?xml version="1.0" encoding="UTF-8"?>
<svg width="131px" height="26px" viewBox="0 0 131 26" version="1.1" xmlns="http://www.w3.org/2000/svg" xmlns:xlink="http://www.w3.org/1999/xlink">
    <title>logo</title>
    <g id="Lanidng-Page" stroke="none" stroke-width="1" fill="none" fill-rule="evenodd">
        <g id="04-Job-Site" transform="translate(-48.000000, -27.000000)" fill="#161C2D" fill-rule="nonzero">
            <g id="Header" transform="translate(48.000000, 27.000000)">
                <path d="M7.7,20.28 C9.94,20.28 11.6806667,19.8646667 12.922,19.034 C14.1633333,18.2033333 14.784,17.088 14.784,15.688 C14.784,14.6053333 14.3686667,13.658 13.538,12.846 C12.7073333,12.034 11.3773333,11.4693333 9.548,11.152 C8.54,10.9653333 7.78866667,10.788 7.294,10.62 C6.79933333,10.452 6.47266667,10.2793333 6.314,10.102 C6.15533333,9.92466667 6.076,9.696 6.076,9.416 C6.076,9.09866667 6.20666667,8.83733333 6.468,8.632 C6.72933333,8.42666667 7.09333333,8.324 7.56,8.324 C7.952,8.324 8.274,8.38466667 8.526,8.506 C8.778,8.62733333 9.072,8.8 9.408,9.024 C9.632,9.192 9.856,9.332 10.08,9.444 C10.1733333,9.51866667 10.304,9.556 10.472,9.556 L10.472,9.556 L13.552,9.556 C13.72,9.556 13.8646667,9.49066667 13.986,9.36 C14.1073333,9.22933333 14.168,9.08 14.168,8.912 C14.168,8.42666667 13.9066667,7.89 13.384,7.302 C12.8613333,6.714 12.1006667,6.21 11.102,5.79 C10.1033333,5.37 8.92266667,5.16 7.56,5.16 C6.216,5.16 5.06333333,5.37466667 4.102,5.804 C3.14066667,6.23333333 2.41266667,6.798 1.918,7.498 C1.42333333,8.198 1.176,8.93066667 1.176,9.696 C1.176,12.0293333 2.79066667,13.5226667 6.02,14.176 C7.028,14.3626667 7.77933333,14.5446667 8.274,14.722 C8.76866667,14.8993333 9.10466667,15.0813333 9.282,15.268 C9.45933333,15.4546667 9.548,15.6973333 9.548,15.996 C9.548,16.3506667 9.38466667,16.626 9.058,16.822 C8.73133333,17.018 8.316,17.116 7.812,17.116 C7.38266667,17.116 7.014,17.046 6.706,16.906 C6.398,16.766 6.06666667,16.5653333 5.712,16.304 C5.67466667,16.2666667 5.49733333,16.1453333 5.18,15.94 C5.10533333,15.8653333 5.012,15.828 4.9,15.828 L4.9,15.828 L1.512,15.828 C1.344,15.828 1.19,15.8886667 1.05,16.01 C0.91,16.1313333 0.84,16.2853333 0.84,16.472 C0.84,16.9573333 1.08733333,17.4986667 1.582,18.096 C2.07666667,18.6933333 2.83733333,19.2066667 3.864,19.636 C4.89066667,20.0653333 6.16933333,20.28 7.7,20.28 Z M21.5444444,20 C21.7497778,20 21.9224444,19.9346667 22.0624444,19.804 C22.2024444,19.6733333 22.2724444,19.5053333 22.2724444,19.3 L22.2724444,19.3 L22.2724444,11.656 C22.2724444,10.8346667 22.4871111,10.1953333 22.9164444,9.738 C23.3457778,9.28066667 23.9337778,9.052 24.6804444,9.052 C25.4457778,9.052 26.0337778,9.28066667 26.4444444,9.738 C26.8551111,10.1953333 27.0604444,10.8346667 27.0604444,11.656 L27.0604444,11.656 L27.0604444,19.3 C27.0604444,19.4866667 27.1304444,19.65 27.2704444,19.79 C27.4104444,19.93 27.5737778,20 27.7604444,20 L27.7604444,20 L31.5684444,20 C31.7737778,20 31.9464444,19.9346667 32.0864444,19.804 C32.2264444,19.6733333 32.2964444,19.5053333 32.2964444,19.3 L32.2964444,19.3 L32.2964444,11.488 C32.2964444,10.144 32.0537778,8.996 31.5684444,8.044 C31.0831111,7.092 30.4111111,6.37333333 29.5524444,5.888 C28.6937778,5.40266667 27.7324444,5.16 26.6684444,5.16 C24.8204444,5.16 23.3551111,5.79466667 22.2724444,7.064 L22.2724444,7.064 L22.2724444,0.82 C22.2724444,0.614666667 22.2024444,0.446666667 22.0624444,0.316 C21.9224444,0.185333333 21.7497778,0.12 21.5444444,0.12 L21.5444444,0.12 L17.7644444,0.12 C17.5591111,0.12 17.3864444,0.185333333 17.2464444,0.316 C17.1064444,0.446666667 17.0364444,0.614666667 17.0364444,0.82 L17.0364444,0.82 L17.0364444,19.3 C17.0364444,19.5053333 17.1064444,19.6733333 17.2464444,19.804 C17.3864444,19.9346667 17.5591111,20 17.7644444,20 L17.7644444,20 L21.5444444,20 Z M39.5888889,20.28 C40.5968889,20.28 41.4648889,20.098 42.1928889,19.734 C42.9208889,19.37 43.4902222,18.8986667 43.9008889,18.32 L43.9008889,18.32 L43.9008889,19.3 C43.9008889,19.4866667 43.9708889,19.65 44.1108889,19.79 C44.2508889,19.93 44.4142222,20 44.6008889,20 L44.6008889,20 L48.0448889,20 C48.2502222,20 48.4182222,19.93 48.5488889,19.79 C48.6795556,19.65 48.7448889,19.4866667 48.7448889,19.3 L48.7448889,19.3 L48.7448889,10.816 C48.7448889,9.08 48.1848889,7.70333333 47.0648889,6.686 C45.9448889,5.66866667 44.2275556,5.16 41.9128889,5.16 C40.4568889,5.16 39.2342222,5.384 38.2448889,5.832 C37.2555556,6.28 36.5182222,6.81666667 36.0328889,7.442 C35.5475556,8.06733333 35.2955556,8.632 35.2768889,9.136 C35.2582222,9.304 35.3095556,9.44866667 35.4308889,9.57 C35.5522222,9.69133333 35.7062222,9.752 35.8928889,9.752 L35.8928889,9.752 L39.1408889,9.752 C39.2528889,9.752 39.3462222,9.68666667 39.4208889,9.556 C39.6075556,9.46266667 39.8222222,9.31333333 40.0648889,9.108 C40.3822222,8.84666667 40.6668889,8.65066667 40.9188889,8.52 C41.1708889,8.38933333 41.4835556,8.324 41.8568889,8.324 C42.5288889,8.324 43.0048889,8.48266667 43.2848889,8.8 C43.5648889,9.11733333 43.7048889,9.62133333 43.7048889,10.312 L43.7048889,10.312 L43.7048889,10.648 L40.2328889,11.18 C38.3848889,11.4786667 36.9335556,12.0246667 35.8788889,12.818 C34.8242222,13.6113333 34.2968889,14.6426667 34.2968889,15.912 C34.2968889,16.7146667 34.5255556,17.452 34.9828889,18.124 C35.4402222,18.796 36.0748889,19.3233333 36.8868889,19.706 C37.6988889,20.0886667 38.5995556,20.28 39.5888889,20.28 Z M40.9888889,16.976 C40.4475556,16.976 39.9948889,16.8453333 39.6308889,16.584 C39.2668889,16.3226667 39.0848889,15.9773333 39.0848889,15.548 C39.0848889,14.7266667 39.8688889,14.1666667 41.4368889,13.868 L41.4368889,13.868 L43.7608889,13.476 L43.7608889,13.812 C43.7608889,14.8386667 43.5042222,15.6226667 42.9908889,16.164 C42.4775556,16.7053333 41.8102222,16.976 40.9888889,16.976 Z M57.1013333,20.28 C58.9866667,20.28 60.4333333,19.664 61.4413333,18.432 L61.4413333,18.432 L61.4413333,19.3 C61.4413333,19.4866667 61.5113333,19.65 61.6513333,19.79 C61.7913333,19.93 61.9546667,20 62.1413333,20 L62.1413333,20 L65.4733333,20 C65.6786667,20 65.8513333,19.9346667 65.9913333,19.804 C66.1313333,19.6733333 66.2013333,19.5053333 66.2013333,19.3 L66.2013333,19.3 L66.2013333,0.82 C66.2013333,0.614666667 66.1313333,0.446666667 65.9913333,0.316 C65.8513333,0.185333333 65.6786667,0.12 65.4733333,0.12 L65.4733333,0.12 L61.8613333,0.12 C61.6746667,0.12 61.5113333,0.185333333 61.3713333,0.316 C61.2313333,0.446666667 61.1613333,0.614666667 61.1613333,0.82 L61.1613333,0.82 L61.1613333,6.784 C60.1346667,5.70133333 58.7813333,5.16 57.1013333,5.16 C55.3093333,5.16 53.8906667,5.74333333 52.8453333,6.91 C51.8,8.07666667 51.24,9.67733333 51.1653333,11.712 L51.1653333,11.712 L51.1373333,12.72 L51.1653333,13.7 C51.24,15.8093333 51.7953333,17.4333333 52.8313333,18.572 C53.8673333,19.7106667 55.2906667,20.28 57.1013333,20.28 Z M58.7253333,16.388 C57.8853333,16.388 57.2833333,16.1406667 56.9193333,15.646 C56.5553333,15.1513333 56.3453333,14.4653333 56.2893333,13.588 L56.2893333,13.588 L56.2613333,12.72 L56.2893333,11.852 C56.3453333,10.9746667 56.5553333,10.2886667 56.9193333,9.794 C57.2833333,9.29933333 57.8853333,9.052 58.7253333,9.052 C59.5093333,9.052 60.102,9.29 60.5033333,9.766 C60.9046667,10.242 61.124,10.844 61.1613333,11.572 C61.1986667,12.0573333 61.2173333,12.4026667 61.2173333,12.608 C61.2173333,12.7946667 61.1986667,13.1493333 61.1613333,13.672 C61.124,14.456 60.9093333,15.1046667 60.5173333,15.618 C60.1253333,16.1313333 59.528,16.388 58.7253333,16.388 Z M76.0697778,20.28 C77.5071111,20.28 78.7531111,20.0466667 79.8077778,19.58 C80.8624444,19.1133333 81.6651111,18.5533333 82.2157778,17.9 C82.7664444,17.2466667 83.0417778,16.6773333 83.0417778,16.192 C83.0417778,16.0426667 82.9811111,15.9166667 82.8597778,15.814 C82.7384444,15.7113333 82.5937778,15.66 82.4257778,15.66 L82.4257778,15.66 L78.7577778,15.66 C78.5337778,15.66 78.3704444,15.6833333 78.2677778,15.73 C78.1651111,15.7766667 78.0297778,15.8933333 77.8617778,16.08 C77.6191111,16.36 77.3624444,16.5886667 77.0917778,16.766 C76.8211111,16.9433333 76.4617778,17.032 76.0137778,17.032 C75.3231111,17.032 74.7911111,16.7753333 74.4177778,16.262 C74.0444444,15.7486667 73.8484444,15.072 73.8297778,14.232 L73.8297778,14.232 L73.8297778,14.064 L82.7057778,14.064 C82.9111111,14.064 83.0837778,13.994 83.2237778,13.854 C83.3637778,13.714 83.4337778,13.5413333 83.4337778,13.336 L83.4337778,13.336 L83.4337778,12.636 C83.4337778,11.1986667 83.1584444,9.91533333 82.6077778,8.786 C82.0571111,7.65666667 81.2264444,6.77 80.1157778,6.126 C79.0051111,5.482 77.6471111,5.16 76.0417778,5.16 C73.8204444,5.16 72.0564444,5.78533333 70.7497778,7.036 C69.4431111,8.28666667 68.7524444,10.0226667 68.6777778,12.244 L68.6777778,12.244 L68.6777778,13.112 C68.7151111,15.4453333 69.3871111,17.2233333 70.6937778,18.446 C72.0004444,19.6686667 73.7924444,20.28 76.0697778,20.28 Z M78.2817778,11.208 L73.8297778,11.208 L73.8297778,11.152 C73.8297778,10.256 74.0211111,9.56066667 74.4037778,9.066 C74.7864444,8.57133333 75.3324444,8.324 76.0417778,8.324 C76.7511111,8.324 77.3017778,8.57133333 77.6937778,9.066 C78.0857778,9.56066667 78.2817778,10.256 78.2817778,11.152 L78.2817778,11.152 L78.2817778,11.208 Z M90.1382222,25.32 C90.3435556,25.32 90.5115556,25.2546667 90.6422222,25.124 C90.7728889,24.9933333 90.8382222,24.8253333 90.8382222,24.62 L90.8382222,24.62 L90.8382222,18.432 C91.7342222,19.664 93.0875556,20.28 94.8982222,20.28 C96.6902222,20.28 98.1088889,19.7013333 99.1542222,18.544 C100.199556,17.3866667 100.759556,15.8 100.834222,13.784 C100.852889,13.5226667 100.862222,13.168 100.862222,12.72 C100.862222,12.272 100.852889,11.9266667 100.834222,11.684 C100.759556,9.59333333 100.204222,7.98333333 99.1682222,6.854 C98.1322222,5.72466667 96.7088889,5.16 94.8982222,5.16 C93.0128889,5.16 91.5662222,5.82266667 90.5582222,7.148 L90.5582222,7.148 L90.5582222,6.14 C90.5582222,5.93466667 90.4928889,5.76666667 90.3622222,5.636 C90.2315556,5.50533333 90.0635556,5.44 89.8582222,5.44 L89.8582222,5.44 L86.5262222,5.44 C86.3208889,5.44 86.1482222,5.50533333 86.0082222,5.636 C85.8682222,5.76666667 85.7982222,5.93466667 85.7982222,6.14 L85.7982222,6.14 L85.7982222,24.62 C85.7982222,24.8253333 85.8682222,24.9933333 86.0082222,25.124 C86.1482222,25.2546667 86.3208889,25.32 86.5262222,25.32 L86.5262222,25.32 L90.1382222,25.32 Z M93.2742222,16.388 C92.4902222,16.388 91.8975556,16.15 91.4962222,15.674 C91.0948889,15.198 90.8755556,14.596 90.8382222,13.868 C90.8195556,13.6253333 90.8102222,13.28 90.8102222,12.832 C90.8102222,12.3653333 90.8195556,12.0106667 90.8382222,11.768 C90.8755556,10.984 91.0902222,10.3353333 91.4822222,9.822 C91.8742222,9.30866667 92.4715556,9.052 93.2742222,9.052 C94.1142222,9.052 94.7162222,9.29933333 95.0802222,9.794 C95.4442222,10.2886667 95.6542222,10.9746667 95.7102222,11.852 C95.7288889,12.0386667 95.7382222,12.328 95.7382222,12.72 C95.7382222,13.112 95.7288889,13.4013333 95.7102222,13.588 C95.6542222,14.4653333 95.4442222,15.1513333 95.0802222,15.646 C94.7162222,16.1406667 94.1142222,16.388 93.2742222,16.388 Z M107.790667,20 C107.996,20 108.168667,19.9346667 108.308667,19.804 C108.448667,19.6733333 108.518667,19.5053333 108.518667,19.3 L108.518667,19.3 L108.518667,12.244 C108.518667,11.4973333 108.719333,10.9186667 109.120667,10.508 C109.522,10.0973333 110.096,9.892 110.842667,9.892 L110.842667,9.892 L113.670667,9.892 C113.876,9.892 114.044,9.822 114.174667,9.682 C114.305333,9.542 114.370667,9.37866667 114.370667,9.192 L114.370667,9.192 L114.370667,6.14 C114.370667,5.93466667 114.305333,5.76666667 114.174667,5.636 C114.044,5.50533333 113.876,5.44 113.670667,5.44 L113.670667,5.44 L112.410667,5.44 C111.552,5.44 110.772667,5.594 110.072667,5.902 C109.372667,6.21 108.761333,6.65333333 108.238667,7.232 L108.238667,7.232 L108.238667,6.168 C108.238667,5.96266667 108.168667,5.79 108.028667,5.65 C107.888667,5.51 107.716,5.44 107.510667,5.44 L107.510667,5.44 L104.094667,5.44 C103.889333,5.44 103.721333,5.51 103.590667,5.65 C103.46,5.79 103.394667,5.96266667 103.394667,6.168 L103.394667,6.168 L103.394667,19.3 C103.394667,19.4866667 103.464667,19.65 103.604667,19.79 C103.744667,19.93 103.908,20 104.094667,20 L104.094667,20 L107.790667,20 Z M123.035111,20.28 C125.387111,20.28 127.193111,19.734 128.453111,18.642 C129.713111,17.55 130.399111,15.996 130.511111,13.98 C130.548444,13.4946667 130.567111,13.0746667 130.567111,12.72 C130.567111,12.3653333 130.548444,11.9453333 130.511111,11.46 C130.399111,9.48133333 129.694444,7.93666667 128.397111,6.826 C127.099778,5.71533333 125.312444,5.16 123.035111,5.16 C120.757778,5.16 118.970444,5.71533333 117.673111,6.826 C116.375778,7.93666667 115.671111,9.48133333 115.559111,11.46 C115.540444,11.7026667 115.531111,12.1226667 115.531111,12.72 L115.531549,12.9356875 C115.53359,13.4195625 115.542778,13.7676667 115.559111,13.98 C115.671111,15.996 116.357111,17.55 117.617111,18.642 C118.877111,19.734 120.683111,20.28 123.035111,20.28 Z M123.035111,16.752 C122.269778,16.752 121.700444,16.514 121.327111,16.038 C120.953778,15.562 120.739111,14.8293333 120.683111,13.84 L120.683111,13.84 L120.655111,12.72 L120.683111,11.6 C120.739111,10.6293333 120.953778,9.90133333 121.327111,9.416 C121.700444,8.93066667 122.269778,8.688 123.035111,8.688 C123.800444,8.688 124.369778,8.93066667 124.743111,9.416 C125.116444,9.90133333 125.331111,10.6293333 125.387111,11.6 C125.405778,11.7866667 125.415111,12.16 125.415111,12.72 C125.415111,13.28 125.405778,13.6533333 125.387111,13.84 C125.331111,14.8293333 125.116444,15.562 124.743111,16.038 C124.369778,16.514 123.800444,16.752 123.035111,16.752 Z" id="logo"></path>
            </g>
        </g>
    </g>
</svg>