<svg xmlns="http://www.w3.org/2000/svg" width="651" height="501" viewBox="0 0 651 501"><defs><clipPath id="skopa"><path d="M276.75.45h10.513v32.442H276.75z"></path></clipPath></defs><g><g><g><path fill="#dbf0f8" d="M512.612 143.378c-9.764-9.408-21.396-17.84-33.933-24.312-33.53-17.304-66.323-29.362-105.732-32.85-27.94-2.471-56.17-1.976-84.084.82-63.886 6.396-112.412 31.805-146.144 68.23-42.007 45.362-61.319 88.927-58.524 153.022 1.186 27.198 8.556 54.307 20.773 79.285 15.195 31.063 47.37 60.477 81.217 77.651 34.07 17.285 77.604 34.255 116.974 35.33 223.396 6.095 272.62-134.874 274.995-217.347 1.55-53.777-24.977-100.742-65.542-139.829"></path></g><g><path fill="#e0dfe5" d="M368.37 161.73l.134.036-.027-.009-.106-.027"></path></g><g><path fill="#f3e0d6" d="M387.4 128.202l.153-.048c-.09.027-.183.05-.271.068.037-.006.077-.01.118-.02"></path></g><g><path fill="#f3e0d6" d="M387.228 128.227l.054-.006a.838.838 0 0 1-.129.014z"></path></g><g><path fill="#dbf0f8" d="M645.933 323.094c-12.713.369-25.389-.97-38.089-1.213-4.82-.095-4.443 6.707.358 6.797 12.702.244 25.375 1.583 38.089 1.212 4.816-.14 4.466-6.935-.358-6.796"></path></g><g><path fill="#dbf0f8" d="M641.938 468.345c-13.671-5.772-28.297-9.183-42.475-13.718-4.5-1.44-7.734 4.7-3.189 6.154 14.18 4.536 28.804 7.946 42.478 13.717 4.37 1.847 7.56-4.303 3.186-6.153"></path></g><g><path fill="#dbf0f8" d="M29.632 403.322l-9.949-1.16c-2.017-.231-3.969.786-4.38 2.695-.372 1.73.937 3.753 2.956 3.986l9.947 1.154c2.023.235 3.974-.784 4.384-2.69.37-1.73-.935-3.758-2.958-3.985"></path></g><g><path fill="#fefefe" d="M43.304 338.534c-13.061 2.323-26.293 4.783-39.663 3.627-4.81-.417-4.863 6.395-.104 6.807 13.97 1.207 27.94-1.404 41.587-3.834 4.744-.845 2.886-7.44-1.82-6.6"></path></g><g><path fill="#dbf0f8" d="M44.51 283.839c-7.809-.984-15.695-1.297-23.506-2.281-4.782-.603-4.939 6.207-.22 6.8 7.81.988 15.697 1.298 23.504 2.282 4.782.604 4.938-6.205.222-6.801"></path></g><g><g></g><g clip-path="url(#skopa)"><path fill="#dbf0f8" d="M285.565 4.674c1.251-4.243-5.958-6.045-7.208-1.809-2.76 9.37-1.772 18.523 1.497 27.665 1.484 4.153 8.701 2.373 7.207-1.81-2.867-8.014-3.923-15.803-1.496-24.046"></path></g></g><g><path fill="#dbf0f8" d="M614.673 180.555c-10.503 2.455-20.94 6.483-30.789 11.875-6.41 3.51-2.495 9.301 3.91 5.798 8.026-4.396 16.682-7.87 25.272-9.88 6.8-1.589 8.442-9.392 1.607-7.793"></path></g><g><path fill="#dbf0f8" d="M90.386 138.143l-7.773-5.77c-1.578-1.169-3.825-1.244-5.282.177-1.321 1.289-1.384 3.64.193 4.809l7.772 5.765c1.582 1.173 3.829 1.249 5.284-.172 1.319-1.289 1.387-3.639-.194-4.81"></path></g><g><path fill="#dbf0f8" d="M67.893 205.652c-12.965-2.74-26.145-5.417-37.827-11.447-4.204-2.172-7.308 4.024-3.15 6.17 12.206 6.303 26.129 9.118 39.675 11.976 4.709.995 5.973-5.715 1.302-6.699"></path></g><g><path fill="#dbf0f8" d="M132.428 58.518c-2.65-3.673-8.386.704-5.77 4.328 4.327 5.999 9.265 11.607 13.592 17.604 2.65 3.674 8.381-.704 5.768-4.327-4.326-6-9.262-11.605-13.59-17.605"></path></g><g><path fill="#dbf0f8" d="M562.142 108.08c-8.11 9.606-16.253 19.414-27.126 26.593-3.911 2.582.994 7.723 4.865 5.168 11.36-7.5 19.947-17.867 28.419-27.905 2.946-3.488-3.237-7.317-6.158-3.856"></path></g><g><path fill="#dbf0f8" d="M343.01 18.51c-1.008 7.117-1.274 14.3-2.283 21.415-.621 4.358 6.864 4.437 7.472.138 1.008-7.117 1.278-14.3 2.283-21.418.618-4.357-6.861-4.436-7.472-.135"></path></g><g><path fill="#dbf0f8" d="M647.236 379.272a154.739 154.739 0 0 0-29.556-1.455c-4.764.226-5.216 7.022-.403 6.796 9.886-.462 19.78.025 29.555 1.45 4.763.696 5.119-6.104.404-6.791"></path></g><g><path fill="#dbf0f8" d="M402.462 32.47c-1.01 7.117-1.276 14.3-2.286 21.415-.619 4.358 6.866 4.437 7.473.137 1.009-7.115 1.276-14.298 2.282-21.416.62-4.358-6.86-4.438-7.47-.137"></path></g><g><path fill="#dbf0f8" d="M617.727 240.265l-9.536 2.82c-1.939.573-3.227 2.253-2.704 4.137.475 1.706 2.607 3.034 4.544 2.458l9.54-2.818c1.934-.574 3.222-2.25 2.7-4.136-.474-1.709-2.609-3.032-4.544-2.461"></path></g><g><path fill="#dbf0f8" d="M214.807 19.673c-.029-4.4-7.477-3.761-7.447.59.083 12.774 4.345 25.165 8.379 37.28 1.399 4.21 8.42 1.863 7.029-2.314-3.856-11.596-7.88-23.33-7.961-35.556"></path></g><g><path fill="#dbf0f8" d="M454.752 69.06l3.67-8.497c.743-1.722.138-3.694-1.792-4.525-1.751-.754-4.229-.093-4.973 1.63l-3.668 8.495c-.746 1.728-.14 3.7 1.788 4.53 1.753.75 4.232.094 4.975-1.633"></path></g><g><path fill="#dbf0f8" d="M523.223 77.937c3.038-3.415-3.289-7.057-6.285-3.686-4.96 5.579-9.325 11.569-14.283 17.144-3.038 3.416 3.288 7.055 6.283 3.686 4.96-5.578 9.325-11.564 14.285-17.144"></path></g></g></g></svg>